<svg
  data-v-0dd9719b=""
  version="1.0"
  xmlns="http://www.w3.org/2000/svg"
  xmlns:xlink="http://www.w3.org/1999/xlink"
  width="100%"
  height="100%"
  viewBox="0 0 340.000000 250.000000"
  preserveAspectRatio="xMidYMid meet"
  color-interpolation-filters="sRGB"
  style="margin: auto"
>
  <rect
    data-v-0dd9719b=""
    x="0"
    y="0"
    width="100%"
    height="100%"
    fill="#ffffff"
    fill-opacity="1"
    class="background"
    style=""
  ></rect>
  <rect
    data-v-0dd9719b=""
    x="0"
    y="0"
    width="100%"
    height="100%"
    fill="url(#watermark)"
    fill-opacity="1"
    class="watermarklayer"
  ></rect>
  <g
    data-v-0dd9719b=""
    fill="#ff4747"
    class="icon-text-wrapper icon-svg-group iconsvg"
    transform="translate(20,75) scale(1.5)"
  >
    <g class="iconsvg-imagesvg" transform="translate(0,4.204345703125)">
      <g>
        <rect
          fill="#ff4747"
          fill-opacity="0"
          stroke-width="2"
          x="0"
          y="0"
          width="59.99999999999999"
          height="60.00060000600005"
          class="image-rect"
        ></rect>
        <svg
          x="0"
          y="0"
          width="59.99999999999999"
          height="60.00060000600005"
          filtersec="colorsb2488427756"
          class="image-svg-svg primary"
          style="overflow: visible"
        >
          <svg
            xmlns="http://www.w3.org/2000/svg"
            viewBox="-0.006403225939720869 -0.004999976139515638 79.9991226196289 80"
          >
            <title>资源 9</title>
            <g id="图层_2" data-name="图层 2">
              <g id="Layer_1" data-name="Layer 1">
                <path
                  d="M70.18,26.13,46.9,2.86a9.79,9.79,0,0,0-13.81,0h0a9.81,9.81,0,0,0,0,13.81L56.37,39.94,70.18,26.13Z"
                  fill="#ffd76e"
                  fill-rule="evenodd"
                ></path>
                <path
                  d="M16.67,46.9a9.79,9.79,0,0,1-13.81,0h0a9.79,9.79,0,0,1,0-13.81L26.11,9.85,39.88,23.69Z"
                  fill="#b4e866"
                  fill-rule="evenodd"
                ></path>
                <path
                  d="M2.71,46.75A9.77,9.77,0,1,0,3,33a9.77,9.77,0,0,0-.3,13.8Z"
                  fill="#82d900"
                  fill-rule="evenodd"
                ></path>
                <path
                  d="M33.09,16.67a9.77,9.77,0,1,0,0-13.81,9.77,9.77,0,0,0,0,13.81Z"
                  fill="#ffbd0d"
                  fill-rule="evenodd"
                ></path>
                <path
                  d="M40,56.39l23.29-23.3a9.81,9.81,0,0,1,13.81,0h0a9.79,9.79,0,0,1,0,13.81L53.84,70.2,40,56.39Z"
                  fill="#ff9191"
                  fill-rule="evenodd"
                ></path>
                <path
                  d="M9.76,53.8,33.1,77.14a9.8,9.8,0,0,0,13.8,0h0a9.79,9.79,0,0,0,0-13.81L23.57,40,9.76,53.8Z"
                  fill="#67c2e0"
                  fill-rule="evenodd"
                ></path>
                <path
                  d="M33.1,77.14a9.76,9.76,0,1,0,0-13.81,9.76,9.76,0,0,0,0,13.81Z"
                  fill="#019acc"
                  fill-rule="evenodd"
                ></path>
                <path
                  d="M63.33,46.9a9.76,9.76,0,1,0,0-13.8,9.75,9.75,0,0,0,0,13.8Z"
                  fill="#ff4747"
                  fill-rule="evenodd"
                ></path>
              </g>
            </g>
          </svg>
        </svg>
        <!---->
      </g>
    </g>
    <g transform="translate(67,0)">
      <g
        data-gra="path-name"
        fill-rule=""
        class="tp-name iconsvg-namesvg"
        transform="translate(0,0)"
      >
        <g transform="scale(1)">
          <g>
            <path
              d="M5.64-8.95L0.06-5.57C0.34-4.35 4.45 2.1 11.33 0.16 18.85-1.91 18.13-7.92 17.5-12.12 17.03-15.34 14.93-24.8 14.93-24.8L14.37-25.17 3.22-23.01 4.7-16.44 9.33-16.94C9.92-15.28 12.24-8.23 9.24-7.26 7.23-6.64 6.32-8.73 6.32-8.73ZM5.7-7.89C6.2-7.11 7.45-5.7 9.52-6.39 13.9-7.73 10.08-17.59 10.08-17.59L9.58-17.91 5.45-17.44 4.35-22.26 14.12-24.14C14.53-22.26 16.15-14.75 16.56-11.99 17.19-7.8 17.85-2.6 11.08-0.72 5.82 0.72 2.32-3.32 1.25-5.2ZM32-3.01L32.97 0.66 39.92-0.97 32.28-24.17 25.64-24.17 15.84-2.38 22.7 0.47 24.11-3.01ZM38.73-1.66L33.66-0.47 32.75-3.94 23.48-3.94 22.2-0.78 17.09-2.88 26.27-23.23 31.59-23.23ZM29.02-17.75L25.58-9.17 31.34-9.17ZM30.09-10.11L26.96-10.11 28.83-14.81ZM46.24-25.08L40.1-24.17 40.1 0.06 47.21 0.47 47.09-11.58 56.07 0.53 62.71-1.22 61.46-25.8 54.13-24.98 55.29-12.84ZM41.04-0.81L41.04-23.36 45.8-24.08 56.54-9.58 55.13-24.17 60.58-24.73 61.71-1.91 56.45-0.53 46.15-14.46 46.27-0.53ZM73.54-14.75L74.39-8.3 77.95-8.8C77.3-7.08 73.32-5.45 70.88-9.14 68.47-12.68 70.94-16.4 73.32-16.78 75.32-17.12 77.52-17.03 78.55-15.37L83.31-19.72 83.34-20.41C83.34-20.41 77.64-26.24 69.53-22.85 61.36-19.44 61.99-10.71 62.8-8.58 63.55-6.57 66.18 0.22 74.7 0.47 83.37 0.72 87.79-8.86 84.5-15.56ZM74.7-0.47C66.81-0.72 64.43-6.89 63.68-8.89 62.99-10.77 62.49-18.88 69.91-21.98 76.23-24.64 80.99-21.19 82.31-20.07L78.61-16.72C77.2-17.97 74.95-18 73.2-17.72 70.25-17.22 67.28-12.8 70.1-8.64 73.38-3.63 79.14-6.67 78.99-9.39L78.46-9.83 75.2-9.36 74.6-13.87 83.9-14.56C86.41-8.42 82.43-0.22 74.7-0.47ZM102.91-24.23L85.66-24.23 86.75 0.5 103.6-0.25 103.6-7.14 93.58-6.61 93.39-9.05 101.4-9.77 101.69-15.59 92.98-16.06 92.92-17.53 101.9-17.25ZM87.63-0.5L86.66-23.29 101.84-23.29 101.09-18.19 91.92-18.53 92.11-15.18 100.68-14.71 100.53-10.64 92.39-9.92 92.7-5.6 102.66-6.14 102.66-1.13ZM111.58-23.54L104.53-23.01 104.53 0.78 119.84 0.47 119.84-6.86 111.86-6.32ZM105.47-0.16L105.47-22.13 110.64-22.54 110.92-5.32 118.9-5.85 118.9-0.47Z"
              transform="translate(-0.06000000238418579, 25.799999237060547)"
            ></path>
          </g>

          <g
            data-gra="path-name-1"
            fill="#ff4747"
            transform="translate(0,29.579999923706055)"
          >
            <g transform="scale(1)">
              <path
                d="M0.63 0.31L0.63-22.57 6.73-23.04 7.01-5.82 15-6.36 15 0ZM26.42-23.67C20.98-23.67 14.68-19.63 14.68-12.37 14.68-4.1 20.16 0 26.42 0 32.68 0 38.29-5.1 38.29-12.87 38.29-20.6 30.37-23.67 26.42-23.67ZM26.24-6.14C23.04-6.14 20.47-8.77 20.47-12.12 20.47-15.84 23.98-17.69 26.36-17.69 28.71-17.69 32.21-15.68 32.21-12.12 32.21-8.58 29.46-6.14 26.24-6.14ZM40.73-23.7C40.73-23.7 36.22-7.92 43.7-2.16 51.16 3.63 55.79-2.32 56.79-4.13 57.76-5.98 61.27-11.52 57.54-24.2L51.28-22.42C51.28-22.42 53.88-12.74 52.28-9.02 50.69-5.32 48.06-6.26 46.84-8.92 46.05-10.68 45.74-15.81 47.3-22.13ZM72.54-12.71C72.54-12.71 75.11-13.96 75.04-18.63 74.98-23.95 68.5-23.82 68.5-23.82 68.5-23.82 62.61-24.29 61.96-19.16 61.33-14.03 64.59-12.43 64.59-12.43 64.59-12.43 60.14-11.02 60.52-6.61 60.95-0.94 65.68-0.03 68.88 0 72.16 0.03 75.58-1.28 76.55-6.29 77.48-11.3 72.54-12.71 72.54-12.71ZM68.09-19.16C69.25-19.16 70.47-18.53 70.47-17.16 70.47-15.81 68.75-14.62 68.75-14.62 68.75-14.62 66.25-15.5 66.25-17.19 66.25-18.88 68.09-19.16 68.09-19.16ZM68.72-4.73C67.44-4.73 66.37-5.38 66.37-6.98 66.37-8.58 68.56-9.77 68.56-9.77 68.56-9.77 70.97-8.27 70.97-6.82 70.97-5.79 70.03-4.73 68.72-4.73ZM78.46 0L77.42-23.76 93.64-23.76 92.76-17.72 83.68-18.03 83.81-15.62 92.45-15.15 92.23-10.21 84.15-9.49 84.4-6.1 94.39-6.64 94.39-0.69ZM114.3-24.36L95.2-23.89 95.02-17.41 101.56-17.59 101.25 0 107.85 0 107.6-18.03 114.3-17.88Z"
                transform="translate(-0.6299999952316284, 24.360000610351562)"
              ></path>
            </g>
          </g>
        </g>
      </g>
      

        <g transform="translate(6.924999237060547,0)">
          <g transform="scale(1)">

          </g>
        </g>
      </g>
    </g>
  
  <defs v-gra="od"></defs>
</svg>
